<svg width="409" height="412" viewBox="0 0 409 412" fill="none" xmlns="http://www.w3.org/2000/svg">
<path fill-rule="evenodd" clip-rule="evenodd" d="M385.325 58.4249C398.828 55.7205 409 43.7982 409 29.5C409 13.2076 395.792 0 379.5 0C365.799 0 354.28 9.33992 350.962 22H337H72H58.0382C54.7201 9.33992 43.2008 0 29.5 0C13.2076 0 0 13.2076 0 29.5C0 43.4622 9.69984 55.159 22.7285 58.2191C22.2622 59.9604 22 61.9233 22 64C22 66.0767 22.2622 68.0396 22.7285 69.7809C9.69984 72.841 0 84.5378 0 98.5C0 112.462 9.69984 124.159 22.7285 127.219C22.2622 128.96 22 130.923 22 133C22 135.077 22.2622 137.04 22.7285 138.781C9.69984 141.841 0 153.538 0 167.5C0 181.462 9.69984 193.159 22.7285 196.219C22.2622 197.96 22 199.923 22 202C22 204.077 22.2622 206.04 22.7285 207.781C9.69984 210.841 0 222.538 0 236.5C0 250.462 9.69984 262.159 22.7285 265.219C22.2622 266.96 22 268.923 22 271C22 273.077 22.2622 275.04 22.7285 276.781C9.69984 279.841 0 291.538 0 305.5C0 321.792 13.2076 335 29.5 335C45.7924 335 59 321.792 59 305.5C59 291.202 48.8278 279.279 35.3254 276.575C35.758 274.886 36 272.995 36 271C36 269.005 35.758 267.114 35.3254 265.425C48.8278 262.721 59 250.798 59 236.5C59 222.202 48.8278 210.279 35.3254 207.575C35.758 205.886 36 203.995 36 202C36 200.005 35.758 198.114 35.3254 196.425C48.8278 193.721 59 181.798 59 167.5C59 153.202 48.8278 141.279 35.3254 138.575C35.758 136.886 36 134.995 36 133C36 131.005 35.758 129.114 35.3254 127.425C48.8278 124.721 59 112.798 59 98.5C59 84.2018 48.8278 72.2795 35.3254 69.5751C35.758 67.8855 36 65.9953 36 64C36 62.0047 35.758 60.1145 35.3254 58.4249C44.6082 56.5657 52.317 50.3496 56.2285 42H72V275V302.73L81.5 332L100 275H93V231H127V275H123L141.5 332L160 275H156V231H190V275H186L204.5 332L223 275H219V231H253V275H249L267.5 332L286 275H282V231H316V275H309L327.5 332L337 302.73V275V42H352.771C356.549 50.0643 363.869 56.1383 372.728 58.2191C372.262 59.9604 372 61.9233 372 64C372 66.0767 372.262 68.0396 372.728 69.7809C359.7 72.841 350 84.5378 350 98.5C350 112.462 359.7 124.159 372.728 127.219C372.262 128.96 372 130.923 372 133C372 135.077 372.262 137.04 372.728 138.781C359.7 141.841 350 153.538 350 167.5C350 181.462 359.7 193.159 372.728 196.219C372.262 197.96 372 199.923 372 202C372 204.077 372.262 206.04 372.728 207.781C359.7 210.841 350 222.538 350 236.5C350 250.462 359.7 262.159 372.728 265.219C372.262 266.96 372 268.923 372 271C372 273.077 372.262 275.04 372.728 276.781C359.7 279.841 350 291.538 350 305.5C350 321.792 363.208 335 379.5 335C395.792 335 409 321.792 409 305.5C409 291.202 398.828 279.279 385.325 276.575C385.758 274.886 386 272.995 386 271C386 269.005 385.758 267.114 385.325 265.425C398.828 262.721 409 250.798 409 236.5C409 222.202 398.828 210.279 385.325 207.575C385.758 205.886 386 203.995 386 202C386 200.005 385.758 198.114 385.325 196.425C398.828 193.721 409 181.798 409 167.5C409 153.202 398.828 141.279 385.325 138.575C385.758 136.886 386 134.995 386 133C386 131.005 385.758 129.114 385.325 127.425C398.828 124.721 409 112.798 409 98.5C409 84.2018 398.828 72.2795 385.325 69.5751C385.758 67.8855 386 65.9953 386 64C386 62.0047 385.758 60.1145 385.325 58.4249ZM376.304 265.829C377.354 265.942 378.42 266 379.5 266C380.257 266 381.007 265.971 381.749 265.916C382.52 267.191 383 268.998 383 271C383 273.002 382.52 274.809 381.749 276.084C381.007 276.029 380.257 276 379.5 276C378.42 276 377.354 276.058 376.304 276.171C375.503 274.891 375 273.048 375 271C375 268.952 375.503 267.109 376.304 265.829ZM25 271C25 268.952 25.5027 267.109 26.304 265.829C27.3538 265.942 28.4201 266 29.5 266C30.2568 266 31.0069 265.971 31.7493 265.916C32.5195 267.191 33 268.998 33 271C33 273.002 32.5195 274.809 31.7493 276.084C31.0069 276.029 30.2568 276 29.5 276C28.4201 276 27.3538 276.058 26.304 276.171C25.5027 274.891 25 273.048 25 271ZM376.304 196.829C377.354 196.942 378.42 197 379.5 197C380.257 197 381.007 196.971 381.749 196.916C382.52 198.191 383 199.998 383 202C383 204.002 382.52 205.809 381.749 207.084C381.007 207.029 380.257 207 379.5 207C378.42 207 377.354 207.058 376.304 207.171C375.503 205.891 375 204.048 375 202C375 199.952 375.503 198.109 376.304 196.829ZM25 202C25 199.952 25.5027 198.109 26.304 196.829C27.3538 196.942 28.4201 197 29.5 197C30.2568 197 31.0069 196.971 31.7493 196.916C32.5195 198.191 33 199.998 33 202C33 204.002 32.5195 205.809 31.7493 207.084C31.0069 207.029 30.2568 207 29.5 207C28.4201 207 27.3538 207.058 26.304 207.171C25.5027 205.891 25 204.048 25 202ZM376.304 127.829C377.354 127.942 378.42 128 379.5 128C380.257 128 381.007 127.971 381.749 127.916C382.52 129.191 383 130.998 383 133C383 135.002 382.52 136.809 381.749 138.084C381.007 138.029 380.257 138 379.5 138C378.42 138 377.354 138.058 376.304 138.171C375.503 136.891 375 135.048 375 133C375 130.952 375.503 129.109 376.304 127.829ZM25 133C25 130.952 25.5027 129.109 26.304 127.829C27.3538 127.942 28.4201 128 29.5 128C30.2568 128 31.0069 127.971 31.7493 127.916C32.5195 129.191 33 130.998 33 133C33 135.002 32.5195 136.809 31.7493 138.084C31.0069 138.029 30.2568 138 29.5 138C28.4201 138 27.3538 138.058 26.304 138.171C25.5027 136.891 25 135.048 25 133ZM376.304 58.8289C377.354 58.942 378.42 59 379.5 59C380.257 59 381.007 58.9715 381.749 58.9155C382.52 60.1914 383 61.9975 383 64C383 66.0025 382.52 67.8086 381.749 69.0845C381.007 69.0285 380.257 69 379.5 69C378.42 69 377.354 69.058 376.304 69.1711C375.503 67.891 375 66.0482 375 64C375 61.9518 375.503 60.109 376.304 58.8289ZM25 64C25 61.9518 25.5027 60.109 26.304 58.8289C27.3538 58.942 28.4201 59 29.5 59C30.2568 59 31.0069 58.9715 31.7493 58.9155C32.5195 60.1914 33 61.9975 33 64C33 66.0025 32.5195 67.8086 31.7493 69.0845C31.0069 69.0285 30.2568 69 29.5 69C28.4201 69 27.3538 69.058 26.304 69.1711C25.5027 67.891 25 66.0482 25 64ZM379.5 47C389.165 47 397 39.165 397 29.5C397 19.835 389.165 12 379.5 12C369.835 12 362 19.835 362 29.5C362 39.165 369.835 47 379.5 47ZM316 42H282V84H316V42ZM253 42H219V84H253V42ZM190 42H156V84H190V42ZM127 42H93V84H127V42ZM93 105H127V147H93V105ZM127 168H93V210H127V168ZM156 105H190V147H156V105ZM190 168H156V210H190V168ZM219 105H253V147H219V105ZM253 168H219V210H253V168ZM282 105H316V147H282V105ZM316 168H282V210H316V168ZM379.5 323C389.165 323 397 315.165 397 305.5C397 295.835 389.165 288 379.5 288C369.835 288 362 295.835 362 305.5C362 315.165 369.835 323 379.5 323ZM47 305.5C47 315.165 39.165 323 29.5 323C19.835 323 12 315.165 12 305.5C12 295.835 19.835 288 29.5 288C39.165 288 47 295.835 47 305.5ZM379.5 254C389.165 254 397 246.165 397 236.5C397 226.835 389.165 219 379.5 219C369.835 219 362 226.835 362 236.5C362 246.165 369.835 254 379.5 254ZM47 236.5C47 246.165 39.165 254 29.5 254C19.835 254 12 246.165 12 236.5C12 226.835 19.835 219 29.5 219C39.165 219 47 226.835 47 236.5ZM379.5 185C389.165 185 397 177.165 397 167.5C397 157.835 389.165 150 379.5 150C369.835 150 362 157.835 362 167.5C362 177.165 369.835 185 379.5 185ZM47 167.5C47 177.165 39.165 185 29.5 185C19.835 185 12 177.165 12 167.5C12 157.835 19.835 150 29.5 150C39.165 150 47 157.835 47 167.5ZM379.5 116C389.165 116 397 108.165 397 98.5C397 88.835 389.165 81 379.5 81C369.835 81 362 88.835 362 98.5C362 108.165 369.835 116 379.5 116ZM47 98.5C47 108.165 39.165 116 29.5 116C19.835 116 12 108.165 12 98.5C12 88.835 19.835 81 29.5 81C39.165 81 47 88.835 47 98.5ZM47 29.5C47 39.165 39.165 47 29.5 47C19.835 47 12 39.165 12 29.5C12 19.835 19.835 12 29.5 12C39.165 12 47 19.835 47 29.5Z" fill="black"/>
<path d="M18.7906 401.242C18.7906 401.723 18.6148 402.139 18.2633 402.49C17.9234 402.83 17.5133 403 17.0328 403C16.5523 403 16.1363 402.83 15.7848 402.49C15.4449 402.139 15.275 401.723 15.275 401.242V380.148C15.275 379.668 15.4449 379.258 15.7848 378.918C16.1363 378.566 16.5523 378.391 17.0328 378.391C17.5133 378.391 17.9234 378.566 18.2633 378.918C18.6148 379.258 18.7906 379.668 18.7906 380.148V388.938H25.8219V380.148C25.8219 379.668 25.9918 379.258 26.3316 378.918C26.6832 378.566 27.0992 378.391 27.5797 378.391C28.0602 378.391 28.4703 378.566 28.8102 378.918C29.1617 379.258 29.3375 379.668 29.3375 380.148V401.242C29.3375 401.723 29.1617 402.139 28.8102 402.49C28.4703 402.83 28.0602 403 27.5797 403C27.0992 403 26.6832 402.83 26.3316 402.49C25.9918 402.139 25.8219 401.723 25.8219 401.242V392.453H18.7906V401.242ZM39.3331 385.422C39.3331 383.477 40.0187 381.818 41.3898 380.447C42.7609 379.076 44.4191 378.391 46.3644 378.391C48.3097 378.391 49.9679 379.076 51.339 380.447C52.7101 381.818 53.3956 383.477 53.3956 385.422V395.969C53.3956 397.914 52.7101 399.572 51.339 400.943C49.9679 402.314 48.3097 403 46.3644 403C44.4191 403 42.7609 402.314 41.3898 400.943C40.0187 399.572 39.3331 397.914 39.3331 395.969V385.422ZM49.88 385.422C49.88 384.449 49.5343 383.623 48.8429 382.943C48.1632 382.252 47.337 381.906 46.3644 381.906C45.3917 381.906 44.5597 382.252 43.8683 382.943C43.1886 383.623 42.8487 384.449 42.8487 385.422V395.969C42.8487 396.941 43.1886 397.773 43.8683 398.465C44.5597 399.145 45.3917 399.484 46.3644 399.484C47.337 399.484 48.1632 399.145 48.8429 398.465C49.5343 397.773 49.88 396.941 49.88 395.969V385.422ZM73.9381 380.148C73.9381 379.668 74.108 379.258 74.4479 378.918C74.7994 378.566 75.2155 378.391 75.6959 378.391C76.1764 378.391 76.5866 378.566 76.9264 378.918C77.278 379.258 77.4537 379.668 77.4537 380.148V395.969C77.4537 397.914 76.7682 399.572 75.3971 400.943C74.026 402.314 72.3678 403 70.4225 403C68.4772 403 66.819 402.314 65.4479 400.943C64.0768 399.572 63.3912 397.914 63.3912 395.969V380.148C63.3912 379.668 63.5612 379.258 63.901 378.918C64.2526 378.566 64.6686 378.391 65.1491 378.391C65.6295 378.391 66.0397 378.566 66.3795 378.918C66.7311 379.258 66.9069 379.668 66.9069 380.148V395.969C66.9069 396.941 67.2467 397.773 67.9264 398.465C68.6178 399.145 69.4498 399.484 70.4225 399.484C71.3951 399.484 72.2213 399.145 72.901 398.465C73.5924 397.773 73.9381 396.941 73.9381 395.969V380.148ZM101.512 395.969C101.512 397.914 100.826 399.572 99.4552 400.943C98.0841 402.314 96.133 403 93.6017 403C91.3048 403 89.4709 402.314 88.0998 400.943L88.1173 400.926C88.1056 400.926 88.0939 400.914 88.0822 400.891C87.7306 400.551 87.5548 400.141 87.5548 399.66C87.5548 399.18 87.7248 398.77 88.0646 398.43C88.4162 398.078 88.8322 397.902 89.3127 397.902C89.7931 397.902 90.2091 398.072 90.5607 398.412C90.5607 398.424 90.5666 398.436 90.5783 398.447C91.2697 399.139 92.2775 399.484 93.6017 399.484C95.1603 399.484 96.2794 399.145 96.9591 398.465C97.6505 397.773 97.9962 396.941 97.9962 395.969C97.9962 394.996 97.6505 394.17 96.9591 393.49C96.2794 392.799 95.4533 392.453 94.4806 392.453C92.5353 392.453 90.8771 391.768 89.506 390.396C88.1349 389.025 87.4494 387.367 87.4494 385.422C87.4494 383.477 88.1349 381.818 89.506 380.447C90.8771 379.076 92.8283 378.391 95.3595 378.391C97.6564 378.391 99.4904 379.076 100.861 380.447L100.844 380.465C100.856 380.465 100.873 380.471 100.897 380.482C101.236 380.834 101.406 381.25 101.406 381.73C101.406 382.211 101.231 382.627 100.879 382.979C100.539 383.318 100.129 383.488 99.6486 383.488C99.1681 383.488 98.758 383.312 98.4181 382.961C98.4064 382.961 98.3947 382.955 98.383 382.943C97.6916 382.252 96.6837 381.906 95.3595 381.906C93.8009 381.906 92.6759 382.252 91.9845 382.943C91.3048 383.623 90.965 384.449 90.965 385.422C90.965 386.395 91.3048 387.227 91.9845 387.918C92.6759 388.598 93.508 388.938 94.4806 388.938C96.4259 388.938 98.0841 389.623 99.4552 390.994C100.826 392.365 101.512 394.023 101.512 395.969ZM123.812 378.391C124.293 378.391 124.703 378.566 125.043 378.918C125.394 379.258 125.57 379.668 125.57 380.148C125.57 380.629 125.394 381.045 125.043 381.396C124.703 381.736 124.293 381.906 123.812 381.906H115.023V388.938H122.054C122.535 388.938 122.945 389.113 123.285 389.465C123.636 389.805 123.812 390.215 123.812 390.695C123.812 391.176 123.636 391.592 123.285 391.943C122.945 392.283 122.535 392.453 122.054 392.453H115.023V399.484H123.812C124.293 399.484 124.703 399.66 125.043 400.012C125.394 400.352 125.57 400.762 125.57 401.242C125.57 401.723 125.394 402.139 125.043 402.49C124.703 402.83 124.293 403 123.812 403H113.265C112.785 403 112.369 402.83 112.017 402.49C111.677 402.139 111.507 401.723 111.507 401.242V380.148C111.507 379.668 111.677 379.258 112.017 378.918C112.369 378.566 112.785 378.391 113.265 378.391H123.812ZM159.624 385.422C159.624 383.477 160.309 381.818 161.68 380.447C163.051 379.076 164.71 378.391 166.655 378.391C168.6 378.391 170.259 379.076 171.63 380.447C173.001 381.818 173.686 383.477 173.686 385.422V395.969C173.686 397.914 173.001 399.572 171.63 400.943C170.259 402.314 168.6 403 166.655 403C164.71 403 163.051 402.314 161.68 400.943C160.309 399.572 159.624 397.914 159.624 395.969V385.422ZM170.171 385.422C170.171 384.449 169.825 383.623 169.134 382.943C168.454 382.252 167.628 381.906 166.655 381.906C165.682 381.906 164.85 382.252 164.159 382.943C163.479 383.623 163.139 384.449 163.139 385.422V395.969C163.139 396.941 163.479 397.773 164.159 398.465C164.85 399.145 165.682 399.484 166.655 399.484C167.628 399.484 168.454 399.145 169.134 398.465C169.825 397.773 170.171 396.941 170.171 395.969V385.422ZM195.987 378.391C196.467 378.391 196.877 378.566 197.217 378.918C197.569 379.258 197.744 379.668 197.744 380.148C197.744 380.629 197.569 381.045 197.217 381.396C196.877 381.736 196.467 381.906 195.987 381.906H187.197V388.938H194.229C194.709 388.938 195.119 389.113 195.459 389.465C195.811 389.805 195.987 390.215 195.987 390.695C195.987 391.176 195.811 391.592 195.459 391.943C195.119 392.283 194.709 392.453 194.229 392.453H187.197V401.242C187.197 401.723 187.022 402.139 186.67 402.49C186.33 402.83 185.92 403 185.44 403C184.959 403 184.543 402.83 184.192 402.49C183.852 402.139 183.682 401.723 183.682 401.242V380.148C183.682 379.668 183.852 379.258 184.192 378.918C184.543 378.566 184.959 378.391 185.44 378.391H195.987ZM235.314 395.969C235.314 396.941 235.654 397.773 236.333 398.465C237.025 399.145 238.15 399.484 239.708 399.484C241.033 399.484 242.04 399.139 242.732 398.447C242.743 398.436 242.755 398.424 242.767 398.412C243.107 398.072 243.517 397.902 243.997 397.902C244.478 397.902 244.888 398.078 245.228 398.43C245.579 398.77 245.755 399.18 245.755 399.66C245.755 400.141 245.585 400.551 245.245 400.891C245.222 400.914 245.204 400.926 245.193 400.926L245.21 400.943C243.839 402.314 242.005 403 239.708 403C237.177 403 235.226 402.314 233.855 400.943C232.484 399.572 231.798 397.914 231.798 395.969V385.422C231.798 383.477 232.484 381.818 233.855 380.447C235.226 379.076 237.177 378.391 239.708 378.391C242.005 378.391 243.839 379.076 245.21 380.447L245.193 380.465C245.204 380.465 245.222 380.471 245.245 380.482C245.585 380.834 245.755 381.25 245.755 381.73C245.755 382.211 245.579 382.627 245.228 382.979C244.888 383.318 244.478 383.488 243.997 383.488C243.517 383.488 243.107 383.312 242.767 382.961C242.755 382.961 242.743 382.955 242.732 382.943C242.04 382.252 241.033 381.906 239.708 381.906C238.15 381.906 237.025 382.252 236.333 382.943C235.654 383.623 235.314 384.449 235.314 385.422V395.969ZM255.856 385.422C255.856 383.477 256.542 381.818 257.913 380.447C259.284 379.076 260.942 378.391 262.887 378.391C264.833 378.391 266.491 379.076 267.862 380.447C269.233 381.818 269.919 383.477 269.919 385.422V395.969C269.919 397.914 269.233 399.572 267.862 400.943C266.491 402.314 264.833 403 262.887 403C260.942 403 259.284 402.314 257.913 400.943C256.542 399.572 255.856 397.914 255.856 395.969V385.422ZM266.403 385.422C266.403 384.449 266.057 383.623 265.366 382.943C264.686 382.252 263.86 381.906 262.887 381.906C261.915 381.906 261.083 382.252 260.391 382.943C259.712 383.623 259.372 384.449 259.372 385.422V395.969C259.372 396.941 259.712 397.773 260.391 398.465C261.083 399.145 261.915 399.484 262.887 399.484C263.86 399.484 264.686 399.145 265.366 398.465C266.057 397.773 266.403 396.941 266.403 395.969V385.422ZM283.43 401.242C283.43 401.723 283.254 402.139 282.903 402.49C282.563 402.83 282.153 403 281.672 403C281.192 403 280.776 402.83 280.424 402.49C280.084 402.139 279.914 401.723 279.914 401.242V380.148C279.914 379.668 280.084 379.258 280.424 378.918C280.776 378.566 281.192 378.391 281.672 378.391C282.153 378.391 282.569 378.561 282.92 378.9C283.061 379.053 283.172 379.211 283.254 379.375L286.946 386.758L290.637 379.375C290.719 379.211 290.836 379.053 290.989 378.9C291.328 378.561 291.739 378.391 292.219 378.391C292.7 378.391 293.11 378.566 293.45 378.918C293.801 379.258 293.977 379.668 293.977 380.148V401.242C293.977 401.723 293.801 402.139 293.45 402.49C293.11 402.83 292.7 403 292.219 403C291.739 403 291.323 402.83 290.971 402.49C290.631 402.139 290.461 401.723 290.461 401.242V387.602L288.914 390.695L286.946 394.633L284.977 390.695L283.43 387.602V401.242ZM307.488 401.242C307.488 401.723 307.312 402.139 306.961 402.49C306.621 402.83 306.211 403 305.73 403C305.25 403 304.834 402.83 304.482 402.49C304.142 402.139 303.973 401.723 303.973 401.242V380.148C303.973 379.668 304.142 379.258 304.482 378.918C304.834 378.566 305.25 378.391 305.73 378.391C306.211 378.391 306.627 378.561 306.978 378.9C307.119 379.053 307.23 379.211 307.312 379.375L311.004 386.758L314.695 379.375C314.777 379.211 314.894 379.053 315.047 378.9C315.387 378.561 315.797 378.391 316.277 378.391C316.758 378.391 317.168 378.566 317.508 378.918C317.859 379.258 318.035 379.668 318.035 380.148V401.242C318.035 401.723 317.859 402.139 317.508 402.49C317.168 402.83 316.758 403 316.277 403C315.797 403 315.381 402.83 315.029 402.49C314.689 402.139 314.519 401.723 314.519 401.242V387.602L312.973 390.695L311.004 394.633L309.035 390.695L307.488 387.602V401.242ZM328.031 385.422C328.031 383.477 328.716 381.818 330.087 380.447C331.458 379.076 333.117 378.391 335.062 378.391C337.007 378.391 338.665 379.076 340.036 380.447C341.408 381.818 342.093 383.477 342.093 385.422V395.969C342.093 397.914 341.408 399.572 340.036 400.943C338.665 402.314 337.007 403 335.062 403C333.117 403 331.458 402.314 330.087 400.943C328.716 399.572 328.031 397.914 328.031 395.969V385.422ZM338.577 385.422C338.577 384.449 338.232 383.623 337.54 382.943C336.861 382.252 336.035 381.906 335.062 381.906C334.089 381.906 333.257 382.252 332.566 382.943C331.886 383.623 331.546 384.449 331.546 385.422V395.969C331.546 396.941 331.886 397.773 332.566 398.465C333.257 399.145 334.089 399.484 335.062 399.484C336.035 399.484 336.861 399.145 337.54 398.465C338.232 397.773 338.577 396.941 338.577 395.969V385.422ZM355.604 401.242C355.604 401.723 355.429 402.139 355.077 402.49C354.737 402.83 354.327 403 353.847 403C353.366 403 352.95 402.83 352.599 402.49C352.259 402.139 352.089 401.723 352.089 401.242V380.148C352.089 379.668 352.259 379.258 352.599 378.918C352.95 378.566 353.366 378.391 353.847 378.391C354.327 378.391 354.743 378.561 355.095 378.9C355.235 379.053 355.347 379.211 355.429 379.375L362.636 393.789V380.148C362.636 379.668 362.806 379.258 363.145 378.918C363.497 378.566 363.913 378.391 364.393 378.391C364.874 378.391 365.284 378.566 365.624 378.918C365.975 379.258 366.151 379.668 366.151 380.148V401.242C366.151 401.723 365.975 402.139 365.624 402.49C365.284 402.83 364.874 403 364.393 403C363.913 403 363.503 402.824 363.163 402.473C363.011 402.332 362.893 402.18 362.811 402.016L355.604 387.602V401.242ZM390.209 395.969C390.209 397.914 389.524 399.572 388.153 400.943C386.782 402.314 384.83 403 382.299 403C380.002 403 378.168 402.314 376.797 400.943L376.815 400.926C376.803 400.926 376.791 400.914 376.78 400.891C376.428 400.551 376.252 400.141 376.252 399.66C376.252 399.18 376.422 398.77 376.762 398.43C377.114 398.078 377.53 397.902 378.01 397.902C378.491 397.902 378.907 398.072 379.258 398.412C379.258 398.424 379.264 398.436 379.276 398.447C379.967 399.139 380.975 399.484 382.299 399.484C383.858 399.484 384.977 399.145 385.657 398.465C386.348 397.773 386.694 396.941 386.694 395.969C386.694 394.996 386.348 394.17 385.657 393.49C384.977 392.799 384.151 392.453 383.178 392.453C381.233 392.453 379.575 391.768 378.204 390.396C376.832 389.025 376.147 387.367 376.147 385.422C376.147 383.477 376.832 381.818 378.204 380.447C379.575 379.076 381.526 378.391 384.057 378.391C386.354 378.391 388.188 379.076 389.559 380.447L389.541 380.465C389.553 380.465 389.571 380.471 389.594 380.482C389.934 380.834 390.104 381.25 390.104 381.73C390.104 382.211 389.928 382.627 389.577 382.979C389.237 383.318 388.827 383.488 388.346 383.488C387.866 383.488 387.455 383.312 387.116 382.961C387.104 382.961 387.092 382.955 387.08 382.943C386.389 382.252 385.381 381.906 384.057 381.906C382.498 381.906 381.373 382.252 380.682 382.943C380.002 383.623 379.663 384.449 379.663 385.422C379.663 386.395 380.002 387.227 380.682 387.918C381.373 388.598 382.205 388.938 383.178 388.938C385.123 388.938 386.782 389.623 388.153 390.994C389.524 392.365 390.209 394.023 390.209 395.969Z" fill="black"/>
</svg>
